# xmcd CD database file
#
# Track frame offsets:
#	182
#	26802
#	60725
#	79615
#	93217
#	104920
#	126757
#	148367
#	178895
#	196480
#	217635
#	245525
#
# Disc length: 3822 seconds
#
# Revision: 2
# Processed by: cddbd v1.4PL0 Copyright (c) Steve Scherf et al.
# Submitted via: NeoAudio 9.9.9
#
DISCID=b00eec0c
DTITLE=Various Artist - Stepping Down Memory Lane
DYEAR=1900
DGENRE=
TTITLE0=Unknown - Love Gonna Last 
TTITLE1=Unknown - Mind Blowing Decisions
TTITLE2=Unknown - Joneses
TTITLE3=Unknown - So In Love With You
TTITLE4=Unknown - This Love
TTITLE5=Unknown - Jam Tonight
TTITLE6=Unknown - Mombo
TTITLE7=Unknown - Piano Negro  
TTITLE8=Unknown - Quiet Storm
TTITLE9=Unknown - Key to The World
TTITLE10=Unknown - Life In The Country
TTITLE11=Unknown - Remember To Remember
EXTD=
EXTT0=
EXTT1=
EXTT2=
EXTT3=
EXTT4=
EXTT5=
EXTT6=
EXTT7=
EXTT8=
EXTT9=
EXTT10=
EXTT11=
PLAYORDER=
